<?xml version="1.0" standalone="no"?>
<!DOCTYPE svg PUBLIC "-//W3C//DTD SVG 20010904//EN"
 "http://www.w3.org/TR/2001/REC-SVG-20010904/DTD/svg10.dtd">
<svg version="1.0" xmlns="http://www.w3.org/2000/svg"
 width="512.000000pt" height="512.000000pt" viewBox="0 0 512.000000 512.000000"
 preserveAspectRatio="xMidYMid meet">

<g transform="translate(0.000000,512.000000) scale(0.100000,-0.100000)"
fill="#000000" stroke="none">
<path d="M578 4995 c-265 -65 -465 -256 -550 -525 l-23 -75 0 -1835 0 -1835
23 -75 c80 -254 265 -439 517 -517 57 -17 143 -18 2020 -18 l1960 0 79 28
c242 85 410 261 488 507 l23 75 0 1835 0 1835 -23 75 c-82 263 -280 454 -537
520 -77 20 -107 20 -1999 19 -1598 -1 -1931 -3 -1978 -14z m1725 -1925 c38
-30 52 -80 33 -123 -24 -60 -52 -67 -246 -67 l-170 0 0 -105 0 -105 110 0 c73
0 122 -5 145 -14 35 -15 65 -59 65 -96 0 -37 -30 -81 -65 -96 -23 -9 -72 -14
-145 -14 l-110 0 0 -171 c0 -142 -3 -176 -17 -199 -34 -58 -116 -68 -164 -21
l-29 29 0 472 0 472 29 29 29 29 255 0 c240 0 256 -1 280 -20z m416 10 c10 -5
121 -147 247 -315 l229 -305 5 282 c5 302 7 314 57 337 45 20 92 13 124 -18
l29 -29 0 -472 0 -472 -29 -29 c-39 -38 -96 -40 -139 -4 -16 13 -128 156 -248
317 l-219 292 -5 -293 -5 -293 -28 -24 c-48 -41 -128 -29 -160 26 -15 25 -17
76 -17 480 0 404 2 455 17 480 9 16 26 33 37 39 27 13 82 14 105 1z"/>
</g>
</svg>
