<?xml version="1.0" standalone="no"?>
<!DOCTYPE svg PUBLIC "-//W3C//DTD SVG 20010904//EN"
 "http://www.w3.org/TR/2001/REC-SVG-20010904/DTD/svg10.dtd">
<svg version="1.0" xmlns="http://www.w3.org/2000/svg"
 width="48.000000pt" height="48.000000pt" viewBox="0 0 48.000000 48.000000"
 preserveAspectRatio="xMidYMid meet">

<g transform="translate(0.000000,48.000000) scale(0.100000,-0.100000)"
fill="#000000" stroke="none">
<path d="M0 240 l0 -240 240 0 240 0 0 240 0 240 -240 0 -240 0 0 -240z m329
90 l36 -85 3 88 c3 84 4 87 26 87 23 0 24 -4 31 -92 4 -51 5 -124 3 -163 -3
-62 -5 -70 -23 -70 -14 0 -30 22 -61 85 l-43 85 0 -82 c-1 -85 -7 -99 -41 -88
-19 6 -20 15 -20 166 l0 160 27 -3 c23 -3 31 -14 62 -88z m-109 61 c0 -23 -19
-31 -71 -31 -38 0 -39 -1 -39 -35 l0 -35 49 0 c52 0 65 -8 55 -34 -4 -12 -20
-16 -55 -16 l-49 0 0 -75 c0 -78 -4 -84 -44 -69 -14 5 -16 29 -16 160 l0 154
85 0 c77 0 85 -2 85 -19z"/>
</g>
</svg>
